<svg width="35" height="35" viewBox="0 0 35 35" fill="none" xmlns="http://www.w3.org/2000/svg">
<g clip-path="url(#clip0_15604_89)">
<path d="M28.5055 0H6.49446C2.90767 0 0 2.90767 0 6.49446V28.5055C0 32.0923 2.90767 35 6.49446 35H28.5055C32.0923 35 35 32.0923 35 28.5055V6.49446C35 2.90767 32.0923 0 28.5055 0Z" fill="#FEFEFE"/>
<path fill-rule="evenodd" clip-rule="evenodd" d="M11.9001 17.4725L14.0773 17.491C14.188 17.8969 14.0588 28.7272 14.1142 30.3692H19.188L19.2064 17.5094C19.6492 17.3987 22.8042 17.491 23.5053 17.491L23.4869 12.3987H19.4094C19.354 12.0482 19.354 10.2032 19.4647 10.0002C19.5016 9.02236 20.5348 9.05926 21.033 9.05926C21.4389 9.05926 23.1917 9.13306 23.4315 9.02236V4.68657C22.9518 4.59432 21.8448 4.66812 21.2913 4.64967C19.3909 4.63122 17.4352 4.50207 15.9407 5.70133C13.3208 7.80465 14.2987 11.0703 14.0404 12.3618H11.5127L11.9001 17.4725Z" fill="#2B2A29" stroke="black" stroke-width="0.849763" stroke-miterlimit="22.9256"/>
</g>
<defs>
<clipPath id="clip0_15604_89">
<rect width="35" height="35" fill="white"/>
</clipPath>
</defs>
</svg>
