<svg width="29" height="29" viewBox="0 0 29 29" fill="none" xmlns="http://www.w3.org/2000/svg">
<g clip-path="url(#clip0_15604_117)">
<path fill-rule="evenodd" clip-rule="evenodd" d="M9.33985 2.89814C14.0985 2.09625 17.9486 5.42619 18.6459 9.36387C19.4911 14.1372 16.0045 17.9609 12.108 18.6362C9.80473 19.0329 7.42539 18.2901 5.93778 17.1464C4.42481 15.9815 3.2119 14.1372 2.88648 12.1916C2.07506 7.3887 5.37993 3.56497 9.33985 2.89814ZM19.7236 16.8594C20.1758 15.7283 20.8435 14.9433 21.2196 13.3438C21.6 11.7062 21.6422 10.3135 21.321 8.65484C19.6644 0.0619925 8.9933 -2.77837 3.12315 3.13026C-2.83153 9.13597 0.0929835 19.7167 8.81158 21.3415C12.8856 22.097 14.5592 20.6451 16.9216 19.6871L23.2524 26.8281C25.2049 28.7653 25.095 30.1454 27.6476 27.6258C28.831 26.4609 29.7142 25.9756 28.1801 24.3591L19.7236 16.8594Z" fill="#FEFEFE"/>
</g>
<defs>
<clipPath id="clip0_15604_117">
<rect width="29" height="29" fill="white"/>
</clipPath>
</defs>
</svg>
