<?xml version="1.0" encoding="UTF-8"?>
<!DOCTYPE svg PUBLIC "-//W3C//DTD SVG 1.1//EN" "http://www.w3.org/Graphics/SVG/1.1/DTD/svg11.dtd">
<!-- Creator: CorelDRAW 2018 (64-Bit) -->
<svg xmlns="http://www.w3.org/2000/svg" xml:space="preserve" width="738px" height="739px" version="1.1" style="shape-rendering:geometricPrecision; text-rendering:geometricPrecision; image-rendering:optimizeQuality; fill-rule:evenodd; clip-rule:evenodd"
viewBox="0 0 68.62 68.66"
 xmlns:xlink="http://www.w3.org/1999/xlink">
 <defs>
  <style type="text/css">
   <![CDATA[
    .fil0 {fill:#FEFEFE}
   ]]>
  </style>
 </defs>
 <g id="Layer_x0020_1">
  <metadata id="CorelCorpID_0Corel-Layer"/>
  <path class="fil0" d="M22.1 6.84c11.26,-1.9 20.37,5.99 22.02,15.32 2,11.31 -6.25,20.37 -15.47,21.97 -5.45,0.94 -11.08,-0.82 -14.6,-3.53 -3.58,-2.76 -6.45,-7.13 -7.22,-11.74 -1.92,-11.38 5.9,-20.44 15.27,-22.02zm24.57 33.08c1.07,-2.68 2.65,-4.54 3.54,-8.33 0.9,-3.88 1,-7.18 0.24,-11.11 -3.92,-20.36 -29.17,-27.09 -43.06,-13.09 -14.09,14.23 -7.17,39.3 13.46,43.15 9.64,1.79 13.6,-1.65 19.19,-3.92l14.98 16.92c4.62,4.59 4.36,7.86 10.4,1.89 2.8,-2.76 4.89,-3.91 1.26,-7.74l-20.01 -17.77z"/>
 </g>
</svg>
