<svg width="35" height="35" viewBox="0 0 35 35" fill="none" xmlns="http://www.w3.org/2000/svg">
<g clip-path="url(#clip0_15604_94)">
<path d="M28.5021 0H6.49789C2.9092 0 0 2.9092 0 6.49789V28.5021C0 32.0908 2.9092 35 6.49789 35H28.5021C32.0908 35 35 32.0908 35 28.5021V6.49789C35 2.9092 32.0908 0 28.5021 0Z" fill="#FEFEFE"/>
<path fill-rule="evenodd" clip-rule="evenodd" d="M4.33203 16.491C4.33203 17.2458 4.87352 17.3443 5.62833 17.6068L9.13981 18.7882C11.437 19.5595 10.5346 19.6579 12.7826 18.3124L18.2467 14.9486C18.5585 14.7681 18.8374 14.6204 19.1328 14.4235L21.8731 12.7498C22.4966 12.3724 23.0545 12.0114 23.6944 11.634C24.1047 11.3879 25.1384 10.6167 25.6143 10.6167C25.6143 11.0597 25.3025 11.1417 24.6626 11.7817L19.5102 16.5074C19.3625 16.6551 19.3133 16.6715 19.1656 16.8028L14.686 20.905C14.686 21.4793 14.5875 22.0208 14.5547 22.5459C14.5383 22.874 14.5219 23.1038 14.5055 23.3663L14.2758 26.6481C14.3086 26.8286 14.5219 27.0747 14.7352 27.0747C15.0798 27.0747 15.6705 26.3199 16.1956 25.8769C16.6386 25.4995 18.099 23.9078 18.4436 23.6617L24.1375 27.9608C24.6297 28.3218 25.2533 28.7976 25.9753 28.2561C26.4183 27.9444 26.5003 27.0911 26.6316 26.5004L28.3709 18.5585C28.6171 17.5576 30.6682 8.40147 30.6682 7.90921C30.6682 7.07236 30.0775 6.49805 29.1914 6.49805C28.6991 6.49805 26.4839 7.43335 25.9753 7.63026L19.6907 10.0424C19.182 10.2228 18.6569 10.4362 18.1154 10.6331L14.9649 11.8473C12.7169 12.6514 10.19 13.7179 7.90915 14.5548L5.52987 15.4573C5.00479 15.6706 4.33203 15.7854 4.33203 16.491Z" fill="black"/>
</g>
<defs>
<clipPath id="clip0_15604_94">
<rect width="35" height="35" fill="white"/>
</clipPath>
</defs>
</svg>
