<?xml version="1.0" encoding="UTF-8"?>
<!DOCTYPE svg PUBLIC "-//W3C//DTD SVG 1.1//EN" "http://www.w3.org/Graphics/SVG/1.1/DTD/svg11.dtd">
<!-- Creator: CorelDRAW 2018 (64-Bit) -->
<svg xmlns="http://www.w3.org/2000/svg" xml:space="preserve" width="934px" height="974px" version="1.1" style="shape-rendering:geometricPrecision; text-rendering:geometricPrecision; image-rendering:optimizeQuality; fill-rule:evenodd; clip-rule:evenodd"
viewBox="0 0 847.32 882.99"
 xmlns:xlink="http://www.w3.org/1999/xlink">
 <defs>
  <style type="text/css">
   <![CDATA[
    .fil0 {fill:#2B2A29;fill-rule:nonzero}
   ]]>
  </style>
 </defs>
 <g id="Layer_x0020_1">
  <metadata id="CorelCorpID_0Corel-Layer"/>
  <path class="fil0" d="M559.55 74.2c0,22.95 -42.01,53.7 -126.05,92.64 0,-22.96 6.76,-48.58 19.88,-77.07 15.58,-33.61 33.41,-50.42 53.29,-50.42 9.23,0 20.09,3.49 32.59,10.25 13.53,7.99 20.29,16.19 20.29,24.6zm229.97 133.63l-264.4 0c28.08,-6.76 54.93,-20.9 80.55,-42.22 5.95,-4.71 20.09,-19.88 42.02,-45.09 22.13,-25.42 35.46,-41.4 39.76,-48.37l-38.33 -14.35c-24.18,56.16 -45.09,90.8 -62.72,103.71 -44.47,32.8 -93.25,48.37 -146.14,46.32l-0.61 0c25.21,-6.35 55.34,-22.75 90.8,-49.19 40.79,-29.51 61.08,-54.52 61.08,-74.81 0,-20.5 -8.81,-36.89 -26.24,-49.19 -15.57,-10.86 -34.02,-16.19 -55.13,-16.19 -29.11,0 -52.27,14.75 -69.49,44.47 -13.52,23.98 -21.11,52.27 -22.75,84.65 -7.58,-30.74 -19.67,-57.59 -36.69,-80.34 -21.11,-29.31 -45.09,-43.86 -71.53,-43.86 -41.61,0 -62.51,17.01 -62.51,51.03 0,19.68 23.57,43.66 70.51,72.15 31.97,19.06 64.15,38.33 96.12,57.6 -43.24,-12.1 -107.19,-31.78 -191.64,-59.44 -27.67,-10.46 -52.06,-33.21 -72.76,-68.46l-28.9 44.47c38.94,29.31 86.08,49.81 141.83,61.49 51.25,8.61 102.49,17.22 153.32,25.62l-340.65 0 45.5 -35.66 47.14 0c-15.99,-10.25 -40.38,-25.41 -72.97,-45.09l44.48 -82.81c19.27,21.32 38.33,42.43 57.19,63.75 21.72,20.7 46.73,33.61 75.22,38.32 -28.49,-19.26 -42.84,-43.24 -42.84,-72.14 0,-22.14 8.2,-39.36 24.8,-51.86 14.35,-11.68 33,-17.42 55.96,-17.42 47.14,0 81.98,34.64 104.94,103.92 16.4,-72.56 48.37,-108.84 95.92,-108.84 26.44,0 49.19,7.17 68.46,21.52 20.7,15.78 31.16,36.28 31.16,61.9 0,32.59 -29.31,62.72 -88.14,90.8 35.25,-4.1 61.49,-20.29 78.3,-48.78 2.05,-3.69 14.14,-33.62 36.28,-89.78l73.17 31.77 -92.24 105.77 126.67 0.2 45.5 34.43zm-388.2 -41.6c-21.73,-9.23 -44.07,-23.57 -67.23,-43.05 -28.49,-23.57 -42.63,-43.86 -42.63,-60.46 0,-16.4 9.43,-24.6 28.28,-24.6 19.48,0 37.72,16.81 54.53,50.22 11.88,23.57 20.9,49.6 27.05,77.89zm446 716.76l-387.38 0 -0.41 -617.77c-3.69,-10.45 -7.79,-22.13 -11.89,-35.25l368.94 0 30.74 25.83 0 627.19zm-424.27 0l-423.05 0 0 -617.36 45.5 -35.66 373.86 0 3.69 30.74 0 622.28z"/>
 </g>
</svg>
