<svg width="35" height="35" viewBox="0 0 35 35" fill="none" xmlns="http://www.w3.org/2000/svg">
<g clip-path="url(#clip0_15604_99)">
<path d="M28.5047 0H6.49529C2.90804 0 0 2.90804 0 6.49529V28.5047C0 32.092 2.90804 35 6.49529 35H28.5047C32.092 35 35 32.092 35 28.5047V6.49529C35 2.90804 32.092 0 28.5047 0Z" fill="#FEFEFE"/>
<path fill-rule="evenodd" clip-rule="evenodd" d="M12.632 17.8647C12.4312 15.0544 14.5676 12.8176 17.1342 12.6312C19.9445 12.4304 22.1813 14.5812 22.3677 17.1334C22.5685 19.9438 20.4177 22.1805 17.8655 22.3669C15.0552 22.5677 12.8327 20.4313 12.632 17.8647ZM10.0224 17.8647C10.2088 21.8651 13.607 25.1773 17.8655 24.9765C21.8802 24.7758 25.1637 21.3919 24.9773 17.1334C24.7909 13.133 21.3784 9.80652 17.1342 10.0216C13.1195 10.2223 9.82164 13.6062 10.0224 17.8647Z" fill="#FEFEFE"/>
<path fill-rule="evenodd" clip-rule="evenodd" d="M26.9992 9.95022C27.1569 8.93219 26.3683 8.1149 25.5223 8.0002C24.49 7.85681 23.6727 8.60241 23.5436 9.46271C23.4003 10.5094 24.1459 11.3267 25.0205 11.4557C26.0959 11.5991 26.8701 10.8392 26.9992 9.95022Z" fill="#FEFEFE"/>
<path fill-rule="evenodd" clip-rule="evenodd" d="M10.0226 17.8652C9.82187 13.6067 13.1197 10.2229 17.1344 10.0221C21.3786 9.80704 24.7911 13.1335 24.9775 17.134C25.1639 21.3925 21.8805 24.7763 17.8657 24.9771C13.6072 25.1778 10.209 21.8656 10.0226 17.8652ZM26.9993 9.95043C26.8702 10.8394 26.0959 11.5993 25.0206 11.456C24.1459 11.3269 23.4003 10.5096 23.5437 9.46292C23.6727 8.60262 24.49 7.85702 25.5224 8.00041C26.3684 8.11511 27.157 8.9324 26.9993 9.95043ZM13.0623 5.54854C11.27 5.60589 9.33436 5.67759 8.02957 6.52355C5.69241 8.05776 5.63506 10.3662 5.54903 13.0188C5.52035 14.0082 5.52035 14.9975 5.52035 15.9869C5.52035 17.9656 5.49168 19.973 5.54903 21.9517C5.60638 23.787 5.66374 25.6079 6.52404 26.9557C8.01523 29.2929 10.4241 29.3646 13.0193 29.4506C14.0087 29.4793 14.998 29.4793 15.9874 29.4793C17.9661 29.4793 19.9734 29.508 21.9378 29.4506C23.7301 29.3933 25.6658 29.3216 26.9562 28.4756C29.2934 26.9414 29.3651 24.6186 29.4511 21.966C29.4798 20.991 29.4798 20.0016 29.4798 19.0123C29.4798 17.0336 29.5085 15.0262 29.4511 13.0475C29.3938 11.2122 29.3364 9.39123 28.4761 8.04342C27.7449 6.91069 26.6265 6.06472 24.7768 5.74928C23.4003 5.50553 20.504 5.51986 19.0128 5.51986C17.0341 5.51986 15.0267 5.49119 13.0623 5.54854Z" fill="black"/>
<path fill-rule="evenodd" clip-rule="evenodd" d="M12.6322 17.8657C12.833 20.4322 15.0554 22.5686 17.8657 22.3679C20.418 22.1815 22.5687 19.9447 22.368 17.1344C22.1816 14.5822 19.9448 12.4314 17.1345 12.6321C14.5679 12.8185 12.4315 15.0553 12.6322 17.8657Z" fill="black"/>
</g>
<defs>
<clipPath id="clip0_15604_99">
<rect width="35" height="35" fill="white"/>
</clipPath>
</defs>
</svg>
